M48
; DRILL file {KiCad (6.0.2)} date Tue Mar  8 16:49:31 2022
; FORMAT={-:-/ absolute / inch / decimal}
; #@! TF.CreationDate,2022-03-08T16:49:31-05:00
; #@! TF.GenerationSoftware,Kicad,Pcbnew,(6.0.2)
; #@! TF.FileFunction,Plated,1,2,PTH
FMAT,2
INCH
; #@! TA.AperFunction,Plated,PTH,ViaDrill
T1C0.0118
; #@! TA.AperFunction,Plated,PTH,ComponentDrill
T2C0.0315
; #@! TA.AperFunction,Plated,PTH,ComponentDrill
T3C0.0394
; #@! TA.AperFunction,Plated,PTH,ComponentDrill
T4C0.0433
%
G90
G05
T1
X5.0862Y-4.8943
X5.1862Y-4.9143
X5.2862Y-4.8511
T2
X4.1929Y-3.3681
X4.1929Y-3.9213
X4.1929Y-4.0472
X4.1929Y-4.1693
X4.1929Y-4.2992
X4.1929Y-4.4213
X4.1929Y-4.5472
X4.2929Y-3.3681
X4.2929Y-3.9213
X4.2929Y-4.0472
X4.2929Y-4.1693
X4.2929Y-4.2992
X4.2929Y-4.4213
X4.2929Y-4.5472
X4.3594Y-3.2362
X4.3594Y-3.5
X4.4441Y-3.6677
X4.4441Y-3.7677
X4.4441Y-3.9842
X4.4441Y-4.0842
X4.4441Y-4.1842
X4.4441Y-4.2842
X4.4441Y-4.3842
X4.4441Y-4.4842
X4.4594Y-3.2362
X4.4594Y-3.5
X4.7441Y-3.6677
X4.7441Y-3.7677
X4.7441Y-3.9842
X4.7441Y-4.0842
X4.7441Y-4.1842
X4.7441Y-4.2842
X4.7441Y-4.3842
X4.7441Y-4.4842
X4.9894Y-4.5276
X5.0894Y-4.5276
X5.1772Y-4.5276
X5.2756Y-4.5276
X5.4756Y-3.0276
X5.4756Y-3.1276
X5.4756Y-3.2276
X5.4756Y-3.3276
X5.4756Y-3.4276
X5.4756Y-3.5276
X5.4756Y-3.6276
X5.4756Y-3.7276
X5.4756Y-3.8276
X5.4756Y-3.9276
X5.4756Y-4.0276
X5.4756Y-4.1276
X5.4756Y-4.2276
X5.4756Y-4.3276
X5.4756Y-4.4276
X5.4756Y-4.5276
X6.0756Y-3.0276
X6.0756Y-3.1276
X6.0756Y-3.2276
X6.0756Y-3.3276
X6.0756Y-3.4276
X6.0756Y-3.5276
X6.0756Y-3.6276
X6.0756Y-3.7276
X6.0756Y-3.8276
X6.0756Y-3.9276
X6.0756Y-4.0276
X6.0756Y-4.1276
X6.0756Y-4.2276
X6.0756Y-4.3276
X6.0756Y-4.4276
X6.0756Y-4.5276
T3
X4.6285Y-3.3681
X4.6441Y-3.6677
X4.6441Y-3.7677
X4.6441Y-3.9842
X4.6441Y-4.0842
X4.6441Y-4.1842
X4.6441Y-4.2842
X4.6441Y-4.3842
X4.6441Y-4.4842
X4.7285Y-3.2681
X4.7285Y-3.3681
X4.7285Y-3.4681
X5.0756Y-3.8276
X5.0756Y-4.0776
X5.0756Y-4.3276
X5.1756Y-3.8276
X5.1756Y-4.0776
X5.1756Y-4.3276
X5.2756Y-3.8276
X5.2756Y-4.0776
X5.2756Y-4.3276
T4
X4.2815Y-2.939
X4.2815Y-3.1161
X4.5374Y-2.939
X4.5374Y-3.1161
T0
M30
